<mxfile host="app.diagrams.net" modified="2024-03-13T18:20:28.535Z" agent="Mozilla/5.0 (Windows NT 10.0; Win64; x64) AppleWebKit/537.36 (KHTML, like Gecko) Chrome/121.0.0.0 Safari/537.36 OPR/107.0.0.0" etag="DoRBmOaFZAs5wT3ixQMm" version="24.0.5" type="github">
  <diagram name="Página-1" id="8q6lhMmIMN3a-nxg73AE">
    <mxGraphModel dx="1548" dy="921" grid="1" gridSize="10" guides="1" tooltips="1" connect="1" arrows="1" fold="1" page="1" pageScale="1" pageWidth="827" pageHeight="1169" math="0" shadow="0">
      <root>
        <mxCell id="0" />
        <mxCell id="1" parent="0" />
        <mxCell id="jCNQIkUQFWEnMq2eT__x-21" style="edgeStyle=orthogonalEdgeStyle;rounded=0;orthogonalLoop=1;jettySize=auto;html=1;exitX=0.5;exitY=1;exitDx=0;exitDy=0;entryX=0.5;entryY=0;entryDx=0;entryDy=0;" edge="1" parent="1" source="jCNQIkUQFWEnMq2eT__x-2" target="jCNQIkUQFWEnMq2eT__x-3">
          <mxGeometry relative="1" as="geometry" />
        </mxCell>
        <mxCell id="jCNQIkUQFWEnMq2eT__x-2" value="inicio" style="ellipse;whiteSpace=wrap;html=1;" vertex="1" parent="1">
          <mxGeometry x="400" y="40" width="120" height="60" as="geometry" />
        </mxCell>
        <mxCell id="jCNQIkUQFWEnMq2eT__x-7" style="edgeStyle=orthogonalEdgeStyle;rounded=0;orthogonalLoop=1;jettySize=auto;html=1;exitX=1;exitY=0.5;exitDx=0;exitDy=0;" edge="1" parent="1" source="jCNQIkUQFWEnMq2eT__x-3" target="jCNQIkUQFWEnMq2eT__x-4">
          <mxGeometry relative="1" as="geometry">
            <Array as="points">
              <mxPoint x="460" y="160" />
            </Array>
          </mxGeometry>
        </mxCell>
        <mxCell id="jCNQIkUQFWEnMq2eT__x-3" value="&quot;Digite um número inteiro e positivo.&quot;" style="shape=document;whiteSpace=wrap;html=1;boundedLbl=1;" vertex="1" parent="1">
          <mxGeometry x="400" y="120" width="120" height="80" as="geometry" />
        </mxCell>
        <mxCell id="jCNQIkUQFWEnMq2eT__x-8" style="edgeStyle=orthogonalEdgeStyle;rounded=0;orthogonalLoop=1;jettySize=auto;html=1;" edge="1" parent="1" source="jCNQIkUQFWEnMq2eT__x-4" target="jCNQIkUQFWEnMq2eT__x-9">
          <mxGeometry relative="1" as="geometry">
            <mxPoint x="560" y="270" as="targetPoint" />
          </mxGeometry>
        </mxCell>
        <mxCell id="jCNQIkUQFWEnMq2eT__x-4" value="num" style="shape=parallelogram;perimeter=parallelogramPerimeter;whiteSpace=wrap;html=1;fixedSize=1;" vertex="1" parent="1">
          <mxGeometry x="400" y="240" width="120" height="60" as="geometry" />
        </mxCell>
        <mxCell id="jCNQIkUQFWEnMq2eT__x-10" style="edgeStyle=orthogonalEdgeStyle;rounded=0;orthogonalLoop=1;jettySize=auto;html=1;entryX=1;entryY=0.5;entryDx=0;entryDy=0;exitX=0.5;exitY=0;exitDx=0;exitDy=0;" edge="1" parent="1" source="jCNQIkUQFWEnMq2eT__x-9" target="jCNQIkUQFWEnMq2eT__x-3">
          <mxGeometry relative="1" as="geometry">
            <Array as="points">
              <mxPoint x="605" y="160" />
            </Array>
          </mxGeometry>
        </mxCell>
        <mxCell id="jCNQIkUQFWEnMq2eT__x-22" value="T" style="edgeLabel;html=1;align=center;verticalAlign=middle;resizable=0;points=[];" vertex="1" connectable="0" parent="jCNQIkUQFWEnMq2eT__x-10">
          <mxGeometry x="-0.3056" relative="1" as="geometry">
            <mxPoint as="offset" />
          </mxGeometry>
        </mxCell>
        <mxCell id="jCNQIkUQFWEnMq2eT__x-11" style="edgeStyle=orthogonalEdgeStyle;rounded=0;orthogonalLoop=1;jettySize=auto;html=1;exitX=0.5;exitY=1;exitDx=0;exitDy=0;entryX=0.5;entryY=0;entryDx=0;entryDy=0;" edge="1" parent="1">
          <mxGeometry relative="1" as="geometry">
            <mxPoint x="604.8" y="340" as="targetPoint" />
            <mxPoint x="604.8" y="300" as="sourcePoint" />
            <Array as="points" />
          </mxGeometry>
        </mxCell>
        <mxCell id="jCNQIkUQFWEnMq2eT__x-23" value="F" style="edgeLabel;html=1;align=center;verticalAlign=middle;resizable=0;points=[];" vertex="1" connectable="0" parent="jCNQIkUQFWEnMq2eT__x-11">
          <mxGeometry x="-0.7571" y="2" relative="1" as="geometry">
            <mxPoint x="-2" y="15" as="offset" />
          </mxGeometry>
        </mxCell>
        <mxCell id="jCNQIkUQFWEnMq2eT__x-9" value="num &amp;lt; 0" style="rhombus;whiteSpace=wrap;html=1;" vertex="1" parent="1">
          <mxGeometry x="560" y="240" width="90" height="60" as="geometry" />
        </mxCell>
        <mxCell id="jCNQIkUQFWEnMq2eT__x-15" style="edgeStyle=orthogonalEdgeStyle;rounded=0;orthogonalLoop=1;jettySize=auto;html=1;exitX=0.5;exitY=1;exitDx=0;exitDy=0;" edge="1" parent="1" source="jCNQIkUQFWEnMq2eT__x-13" target="jCNQIkUQFWEnMq2eT__x-16">
          <mxGeometry relative="1" as="geometry">
            <mxPoint x="734.8571428571429" y="320" as="targetPoint" />
          </mxGeometry>
        </mxCell>
        <mxCell id="jCNQIkUQFWEnMq2eT__x-24" value="T" style="edgeLabel;html=1;align=center;verticalAlign=middle;resizable=0;points=[];" vertex="1" connectable="0" parent="jCNQIkUQFWEnMq2eT__x-15">
          <mxGeometry x="0.02" relative="1" as="geometry">
            <mxPoint as="offset" />
          </mxGeometry>
        </mxCell>
        <mxCell id="jCNQIkUQFWEnMq2eT__x-25" style="edgeStyle=orthogonalEdgeStyle;rounded=0;orthogonalLoop=1;jettySize=auto;html=1;" edge="1" parent="1" source="jCNQIkUQFWEnMq2eT__x-13">
          <mxGeometry relative="1" as="geometry">
            <mxPoint x="520" y="370" as="targetPoint" />
          </mxGeometry>
        </mxCell>
        <mxCell id="jCNQIkUQFWEnMq2eT__x-26" value="F" style="edgeLabel;html=1;align=center;verticalAlign=middle;resizable=0;points=[];" vertex="1" connectable="0" parent="jCNQIkUQFWEnMq2eT__x-25">
          <mxGeometry x="-0.1606" relative="1" as="geometry">
            <mxPoint as="offset" />
          </mxGeometry>
        </mxCell>
        <mxCell id="jCNQIkUQFWEnMq2eT__x-13" value="num === 0" style="rhombus;whiteSpace=wrap;html=1;" vertex="1" parent="1">
          <mxGeometry x="560" y="340" width="90" height="60" as="geometry" />
        </mxCell>
        <mxCell id="jCNQIkUQFWEnMq2eT__x-46" style="edgeStyle=orthogonalEdgeStyle;rounded=0;orthogonalLoop=1;jettySize=auto;html=1;exitX=0;exitY=0.5;exitDx=0;exitDy=0;entryX=0.625;entryY=0.484;entryDx=0;entryDy=0;entryPerimeter=0;" edge="1" parent="1" source="jCNQIkUQFWEnMq2eT__x-16" target="jCNQIkUQFWEnMq2eT__x-48">
          <mxGeometry relative="1" as="geometry">
            <mxPoint x="480" y="455" as="targetPoint" />
          </mxGeometry>
        </mxCell>
        <mxCell id="jCNQIkUQFWEnMq2eT__x-16" value="num" style="shape=document;whiteSpace=wrap;html=1;boundedLbl=1;" vertex="1" parent="1">
          <mxGeometry x="560" y="430" width="90" height="50" as="geometry" />
        </mxCell>
        <mxCell id="jCNQIkUQFWEnMq2eT__x-17" value="Fim" style="ellipse;whiteSpace=wrap;html=1;" vertex="1" parent="1">
          <mxGeometry x="415" y="550" width="90" height="50" as="geometry" />
        </mxCell>
        <mxCell id="jCNQIkUQFWEnMq2eT__x-28" style="edgeStyle=orthogonalEdgeStyle;rounded=0;orthogonalLoop=1;jettySize=auto;html=1;" edge="1" parent="1" source="jCNQIkUQFWEnMq2eT__x-27" target="jCNQIkUQFWEnMq2eT__x-30">
          <mxGeometry relative="1" as="geometry">
            <mxPoint x="360" y="370" as="targetPoint" />
          </mxGeometry>
        </mxCell>
        <mxCell id="jCNQIkUQFWEnMq2eT__x-27" value="cont = 0" style="rounded=0;whiteSpace=wrap;html=1;" vertex="1" parent="1">
          <mxGeometry x="400" y="340" width="120" height="60" as="geometry" />
        </mxCell>
        <mxCell id="jCNQIkUQFWEnMq2eT__x-43" style="edgeStyle=orthogonalEdgeStyle;rounded=0;orthogonalLoop=1;jettySize=auto;html=1;exitX=0;exitY=0.5;exitDx=0;exitDy=0;entryX=0.5;entryY=0;entryDx=0;entryDy=0;" edge="1" parent="1" source="jCNQIkUQFWEnMq2eT__x-30" target="jCNQIkUQFWEnMq2eT__x-33">
          <mxGeometry relative="1" as="geometry">
            <Array as="points">
              <mxPoint x="260" y="370" />
              <mxPoint x="260" y="430" />
              <mxPoint x="320" y="430" />
            </Array>
          </mxGeometry>
        </mxCell>
        <mxCell id="jCNQIkUQFWEnMq2eT__x-44" value="T" style="edgeLabel;html=1;align=center;verticalAlign=middle;resizable=0;points=[];" vertex="1" connectable="0" parent="jCNQIkUQFWEnMq2eT__x-43">
          <mxGeometry x="-0.3844" relative="1" as="geometry">
            <mxPoint as="offset" />
          </mxGeometry>
        </mxCell>
        <mxCell id="jCNQIkUQFWEnMq2eT__x-45" style="edgeStyle=orthogonalEdgeStyle;rounded=0;orthogonalLoop=1;jettySize=auto;html=1;exitX=0.5;exitY=1;exitDx=0;exitDy=0;entryX=0;entryY=0.5;entryDx=0;entryDy=0;entryPerimeter=0;" edge="1" parent="1" source="jCNQIkUQFWEnMq2eT__x-30" target="jCNQIkUQFWEnMq2eT__x-48">
          <mxGeometry relative="1" as="geometry">
            <mxPoint x="445" y="455" as="targetPoint" />
            <mxPoint x="320" y="400" as="sourcePoint" />
            <Array as="points">
              <mxPoint x="320" y="420" />
              <mxPoint x="390" y="420" />
              <mxPoint x="390" y="455" />
            </Array>
          </mxGeometry>
        </mxCell>
        <mxCell id="jCNQIkUQFWEnMq2eT__x-50" value="F" style="edgeLabel;html=1;align=center;verticalAlign=middle;resizable=0;points=[];" vertex="1" connectable="0" parent="jCNQIkUQFWEnMq2eT__x-45">
          <mxGeometry x="-0.8867" relative="1" as="geometry">
            <mxPoint as="offset" />
          </mxGeometry>
        </mxCell>
        <mxCell id="jCNQIkUQFWEnMq2eT__x-30" value="cont &amp;lt; num" style="rhombus;whiteSpace=wrap;html=1;" vertex="1" parent="1">
          <mxGeometry x="275" y="345" width="90" height="50" as="geometry" />
        </mxCell>
        <mxCell id="jCNQIkUQFWEnMq2eT__x-32" value="som = cont + num" style="rounded=0;whiteSpace=wrap;html=1;" vertex="1" parent="1">
          <mxGeometry x="99.99666666666673" y="440" width="120" height="60" as="geometry" />
        </mxCell>
        <mxCell id="jCNQIkUQFWEnMq2eT__x-36" style="edgeStyle=orthogonalEdgeStyle;rounded=0;orthogonalLoop=1;jettySize=auto;html=1;exitX=0.5;exitY=1;exitDx=0;exitDy=0;entryX=0.5;entryY=1;entryDx=0;entryDy=0;" edge="1" parent="1" source="jCNQIkUQFWEnMq2eT__x-33" target="jCNQIkUQFWEnMq2eT__x-32">
          <mxGeometry relative="1" as="geometry">
            <Array as="points" />
          </mxGeometry>
        </mxCell>
        <mxCell id="jCNQIkUQFWEnMq2eT__x-55" value="T" style="edgeLabel;html=1;align=center;verticalAlign=middle;resizable=0;points=[];" vertex="1" connectable="0" parent="jCNQIkUQFWEnMq2eT__x-36">
          <mxGeometry x="-0.7603" y="2" relative="1" as="geometry">
            <mxPoint x="5" y="-12" as="offset" />
          </mxGeometry>
        </mxCell>
        <mxCell id="jCNQIkUQFWEnMq2eT__x-51" style="edgeStyle=orthogonalEdgeStyle;rounded=0;orthogonalLoop=1;jettySize=auto;html=1;" edge="1" parent="1" source="jCNQIkUQFWEnMq2eT__x-33">
          <mxGeometry relative="1" as="geometry">
            <mxPoint x="320" y="320" as="targetPoint" />
            <Array as="points">
              <mxPoint x="240" y="480" />
              <mxPoint x="240" y="320" />
            </Array>
          </mxGeometry>
        </mxCell>
        <mxCell id="jCNQIkUQFWEnMq2eT__x-54" value="F" style="edgeLabel;html=1;align=center;verticalAlign=middle;resizable=0;points=[];" vertex="1" connectable="0" parent="jCNQIkUQFWEnMq2eT__x-51">
          <mxGeometry x="-0.8897" y="2" relative="1" as="geometry">
            <mxPoint x="4" y="-2" as="offset" />
          </mxGeometry>
        </mxCell>
        <mxCell id="jCNQIkUQFWEnMq2eT__x-33" value="cont % 2&amp;nbsp;&lt;span style=&quot;background-color: initial;&quot;&gt;== 0&lt;/span&gt;" style="rhombus;whiteSpace=wrap;html=1;" vertex="1" parent="1">
          <mxGeometry x="260" y="450" width="120" height="60" as="geometry" />
        </mxCell>
        <mxCell id="jCNQIkUQFWEnMq2eT__x-40" style="edgeStyle=orthogonalEdgeStyle;rounded=0;orthogonalLoop=1;jettySize=auto;html=1;exitX=0.5;exitY=0;exitDx=0;exitDy=0;entryX=0;entryY=0.5;entryDx=0;entryDy=0;" edge="1" parent="1" source="jCNQIkUQFWEnMq2eT__x-37" target="jCNQIkUQFWEnMq2eT__x-41">
          <mxGeometry relative="1" as="geometry">
            <mxPoint x="160" y="300" as="targetPoint" />
          </mxGeometry>
        </mxCell>
        <mxCell id="jCNQIkUQFWEnMq2eT__x-37" value="cont &quot;+&quot; num &quot;=&quot; som" style="shape=document;whiteSpace=wrap;html=1;boundedLbl=1;" vertex="1" parent="1">
          <mxGeometry x="100" y="330" width="120" height="80" as="geometry" />
        </mxCell>
        <mxCell id="jCNQIkUQFWEnMq2eT__x-39" style="edgeStyle=orthogonalEdgeStyle;rounded=0;orthogonalLoop=1;jettySize=auto;html=1;exitX=0.5;exitY=0;exitDx=0;exitDy=0;" edge="1" parent="1" source="jCNQIkUQFWEnMq2eT__x-32" target="jCNQIkUQFWEnMq2eT__x-37">
          <mxGeometry relative="1" as="geometry">
            <Array as="points" />
          </mxGeometry>
        </mxCell>
        <mxCell id="jCNQIkUQFWEnMq2eT__x-42" style="edgeStyle=orthogonalEdgeStyle;rounded=0;orthogonalLoop=1;jettySize=auto;html=1;exitX=1;exitY=0.5;exitDx=0;exitDy=0;" edge="1" parent="1" source="jCNQIkUQFWEnMq2eT__x-41">
          <mxGeometry relative="1" as="geometry">
            <mxPoint x="320" y="320" as="targetPoint" />
            <Array as="points">
              <mxPoint x="320" y="260" />
            </Array>
          </mxGeometry>
        </mxCell>
        <mxCell id="jCNQIkUQFWEnMq2eT__x-41" value="cont++" style="rounded=0;whiteSpace=wrap;html=1;" vertex="1" parent="1">
          <mxGeometry x="180" y="230" width="120" height="60" as="geometry" />
        </mxCell>
        <mxCell id="jCNQIkUQFWEnMq2eT__x-49" style="edgeStyle=orthogonalEdgeStyle;rounded=0;orthogonalLoop=1;jettySize=auto;html=1;" edge="1" parent="1" source="jCNQIkUQFWEnMq2eT__x-48" target="jCNQIkUQFWEnMq2eT__x-17">
          <mxGeometry relative="1" as="geometry" />
        </mxCell>
        <mxCell id="jCNQIkUQFWEnMq2eT__x-48" value="" style="shape=waypoint;sketch=0;fillStyle=solid;size=6;pointerEvents=1;points=[];fillColor=none;resizable=0;rotatable=0;perimeter=centerPerimeter;snapToPoint=1;" vertex="1" parent="1">
          <mxGeometry x="450" y="445" width="20" height="20" as="geometry" />
        </mxCell>
        <mxCell id="jCNQIkUQFWEnMq2eT__x-53" style="edgeStyle=orthogonalEdgeStyle;rounded=0;orthogonalLoop=1;jettySize=auto;html=1;entryX=0.5;entryY=0;entryDx=0;entryDy=0;" edge="1" parent="1" source="jCNQIkUQFWEnMq2eT__x-52" target="jCNQIkUQFWEnMq2eT__x-30">
          <mxGeometry relative="1" as="geometry" />
        </mxCell>
        <mxCell id="jCNQIkUQFWEnMq2eT__x-52" value="" style="shape=waypoint;sketch=0;fillStyle=solid;size=6;pointerEvents=1;points=[];fillColor=none;resizable=0;rotatable=0;perimeter=centerPerimeter;snapToPoint=1;" vertex="1" parent="1">
          <mxGeometry x="310" y="310" width="20" height="20" as="geometry" />
        </mxCell>
      </root>
    </mxGraphModel>
  </diagram>
</mxfile>
